<mxfile host="Electron" agent="Mozilla/5.0 (Windows NT 10.0; Win64; x64) AppleWebKit/537.36 (KHTML, like Gecko) draw.io/26.2.2 Chrome/134.0.6998.178 Electron/35.1.2 Safari/537.36" version="26.2.2">
  <diagram name="Page-1" id="gdwfUhKeecnfwwhDLe27">
    <mxGraphModel dx="625" dy="514" grid="1" gridSize="10" guides="1" tooltips="1" connect="1" arrows="1" fold="1" page="1" pageScale="1" pageWidth="850" pageHeight="1100" math="0" shadow="0">
      <root>
        <mxCell id="0" />
        <mxCell id="1" parent="0" />
        <mxCell id="MpDcp7LP96T5za3nywK4-1" value="" style="rounded=0;whiteSpace=wrap;html=1;fillColor=none;dashed=1;dashPattern=8 8;" vertex="1" parent="1">
          <mxGeometry x="40" y="230" width="340" height="330" as="geometry" />
        </mxCell>
        <mxCell id="MpDcp7LP96T5za3nywK4-4" value="" style="rounded=0;whiteSpace=wrap;html=1;fillColor=none;dashed=1;dashPattern=8 8;" vertex="1" parent="1">
          <mxGeometry x="460" y="230" width="340" height="330" as="geometry" />
        </mxCell>
        <mxCell id="MpDcp7LP96T5za3nywK4-21" style="edgeStyle=orthogonalEdgeStyle;rounded=0;orthogonalLoop=1;jettySize=auto;html=1;exitX=0.5;exitY=1;exitDx=0;exitDy=0;entryX=0.5;entryY=0;entryDx=0;entryDy=0;" edge="1" parent="1" source="MpDcp7LP96T5za3nywK4-7" target="MpDcp7LP96T5za3nywK4-11">
          <mxGeometry relative="1" as="geometry" />
        </mxCell>
        <mxCell id="MpDcp7LP96T5za3nywK4-7" value="Transmit Register" style="rounded=0;whiteSpace=wrap;html=1;" vertex="1" parent="1">
          <mxGeometry x="240" y="250" width="120" height="60" as="geometry" />
        </mxCell>
        <mxCell id="MpDcp7LP96T5za3nywK4-8" value="Recieve Register" style="rounded=0;whiteSpace=wrap;html=1;" vertex="1" parent="1">
          <mxGeometry x="240" y="480" width="120" height="60" as="geometry" />
        </mxCell>
        <mxCell id="MpDcp7LP96T5za3nywK4-25" style="edgeStyle=orthogonalEdgeStyle;rounded=0;orthogonalLoop=1;jettySize=auto;html=1;exitX=0.5;exitY=0;exitDx=0;exitDy=0;entryX=0.5;entryY=1;entryDx=0;entryDy=0;" edge="1" parent="1" source="MpDcp7LP96T5za3nywK4-9" target="MpDcp7LP96T5za3nywK4-13">
          <mxGeometry relative="1" as="geometry" />
        </mxCell>
        <mxCell id="MpDcp7LP96T5za3nywK4-9" value="Transmit Register" style="rounded=0;whiteSpace=wrap;html=1;" vertex="1" parent="1">
          <mxGeometry x="480" y="480" width="120" height="60" as="geometry" />
        </mxCell>
        <mxCell id="MpDcp7LP96T5za3nywK4-10" value="Recieve Register" style="rounded=0;whiteSpace=wrap;html=1;" vertex="1" parent="1">
          <mxGeometry x="480" y="250" width="120" height="60" as="geometry" />
        </mxCell>
        <mxCell id="MpDcp7LP96T5za3nywK4-27" style="edgeStyle=orthogonalEdgeStyle;rounded=0;orthogonalLoop=1;jettySize=auto;html=1;exitX=1;exitY=0.5;exitDx=0;exitDy=0;entryX=0;entryY=0.5;entryDx=0;entryDy=0;strokeWidth=2;strokeColor=#FF0000;" edge="1" parent="1" source="MpDcp7LP96T5za3nywK4-11" target="MpDcp7LP96T5za3nywK4-12">
          <mxGeometry relative="1" as="geometry" />
        </mxCell>
        <mxCell id="MpDcp7LP96T5za3nywK4-11" value="Shift Register" style="rounded=1;whiteSpace=wrap;html=1;" vertex="1" parent="1">
          <mxGeometry x="250" y="330" width="100" height="40" as="geometry" />
        </mxCell>
        <mxCell id="MpDcp7LP96T5za3nywK4-24" style="edgeStyle=orthogonalEdgeStyle;rounded=0;orthogonalLoop=1;jettySize=auto;html=1;exitX=0.5;exitY=0;exitDx=0;exitDy=0;entryX=0.5;entryY=1;entryDx=0;entryDy=0;" edge="1" parent="1" source="MpDcp7LP96T5za3nywK4-12" target="MpDcp7LP96T5za3nywK4-10">
          <mxGeometry relative="1" as="geometry" />
        </mxCell>
        <mxCell id="MpDcp7LP96T5za3nywK4-12" value="Shift Register" style="rounded=1;whiteSpace=wrap;html=1;" vertex="1" parent="1">
          <mxGeometry x="490" y="330" width="100" height="40" as="geometry" />
        </mxCell>
        <mxCell id="MpDcp7LP96T5za3nywK4-28" style="edgeStyle=orthogonalEdgeStyle;rounded=0;orthogonalLoop=1;jettySize=auto;html=1;exitX=0;exitY=0.5;exitDx=0;exitDy=0;entryX=1;entryY=0.5;entryDx=0;entryDy=0;strokeWidth=2;strokeColor=#3AD1FF;" edge="1" parent="1" source="MpDcp7LP96T5za3nywK4-13" target="MpDcp7LP96T5za3nywK4-14">
          <mxGeometry relative="1" as="geometry" />
        </mxCell>
        <mxCell id="MpDcp7LP96T5za3nywK4-13" value="Shift Register" style="rounded=1;whiteSpace=wrap;html=1;" vertex="1" parent="1">
          <mxGeometry x="490" y="420" width="100" height="40" as="geometry" />
        </mxCell>
        <mxCell id="MpDcp7LP96T5za3nywK4-22" style="edgeStyle=orthogonalEdgeStyle;rounded=0;orthogonalLoop=1;jettySize=auto;html=1;exitX=0.5;exitY=1;exitDx=0;exitDy=0;entryX=0.5;entryY=0;entryDx=0;entryDy=0;" edge="1" parent="1" source="MpDcp7LP96T5za3nywK4-14" target="MpDcp7LP96T5za3nywK4-8">
          <mxGeometry relative="1" as="geometry" />
        </mxCell>
        <mxCell id="MpDcp7LP96T5za3nywK4-14" value="Shift Register" style="rounded=1;whiteSpace=wrap;html=1;" vertex="1" parent="1">
          <mxGeometry x="250" y="420" width="100" height="40" as="geometry" />
        </mxCell>
        <mxCell id="MpDcp7LP96T5za3nywK4-15" value="Clock Generator" style="rounded=0;whiteSpace=wrap;html=1;" vertex="1" parent="1">
          <mxGeometry x="80" y="372.5" width="80" height="45" as="geometry" />
        </mxCell>
        <mxCell id="MpDcp7LP96T5za3nywK4-16" value="Clock Generator" style="rounded=0;whiteSpace=wrap;html=1;" vertex="1" parent="1">
          <mxGeometry x="680" y="372.5" width="80" height="45" as="geometry" />
        </mxCell>
        <mxCell id="MpDcp7LP96T5za3nywK4-17" value="" style="endArrow=none;html=1;rounded=0;entryX=0.5;entryY=1;entryDx=0;entryDy=0;exitX=0.5;exitY=0;exitDx=0;exitDy=0;" edge="1" parent="1" source="MpDcp7LP96T5za3nywK4-14" target="MpDcp7LP96T5za3nywK4-11">
          <mxGeometry width="50" height="50" relative="1" as="geometry">
            <mxPoint x="320" y="417.5" as="sourcePoint" />
            <mxPoint x="300" y="377.5" as="targetPoint" />
          </mxGeometry>
        </mxCell>
        <mxCell id="MpDcp7LP96T5za3nywK4-18" value="" style="endArrow=none;html=1;rounded=0;entryX=0.5;entryY=1;entryDx=0;entryDy=0;exitX=0.5;exitY=0;exitDx=0;exitDy=0;" edge="1" parent="1">
          <mxGeometry width="50" height="50" relative="1" as="geometry">
            <mxPoint x="539.76" y="420" as="sourcePoint" />
            <mxPoint x="539.76" y="370" as="targetPoint" />
          </mxGeometry>
        </mxCell>
        <mxCell id="MpDcp7LP96T5za3nywK4-19" value="" style="endArrow=none;html=1;rounded=0;entryX=1;entryY=0.5;entryDx=0;entryDy=0;" edge="1" parent="1" target="MpDcp7LP96T5za3nywK4-15">
          <mxGeometry width="50" height="50" relative="1" as="geometry">
            <mxPoint x="300" y="395" as="sourcePoint" />
            <mxPoint x="410" y="470" as="targetPoint" />
          </mxGeometry>
        </mxCell>
        <mxCell id="MpDcp7LP96T5za3nywK4-20" value="" style="endArrow=none;html=1;rounded=0;entryX=1;entryY=0.5;entryDx=0;entryDy=0;" edge="1" parent="1">
          <mxGeometry width="50" height="50" relative="1" as="geometry">
            <mxPoint x="680" y="394.71" as="sourcePoint" />
            <mxPoint x="540" y="394.71" as="targetPoint" />
          </mxGeometry>
        </mxCell>
        <mxCell id="MpDcp7LP96T5za3nywK4-29" value="01001101" style="text;html=1;align=center;verticalAlign=middle;whiteSpace=wrap;rounded=0;fontStyle=1;fontSize=13;" vertex="1" parent="1">
          <mxGeometry x="510" y="288" width="60" height="30" as="geometry" />
        </mxCell>
        <mxCell id="MpDcp7LP96T5za3nywK4-30" value="" style="endArrow=classic;html=1;rounded=0;fontColor=#FF0000;strokeColor=#FF0000;" edge="1" parent="1">
          <mxGeometry width="50" height="50" relative="1" as="geometry">
            <mxPoint x="530" y="330" as="sourcePoint" />
            <mxPoint x="530" y="310" as="targetPoint" />
          </mxGeometry>
        </mxCell>
        <mxCell id="MpDcp7LP96T5za3nywK4-31" value="01001101" style="text;html=1;align=center;verticalAlign=middle;whiteSpace=wrap;rounded=0;fontStyle=1;opacity=90;textOpacity=60;" vertex="1" parent="1">
          <mxGeometry x="510" y="322" width="60" height="30" as="geometry" />
        </mxCell>
        <mxCell id="MpDcp7LP96T5za3nywK4-32" value="" style="endArrow=classic;html=1;rounded=0;fontColor=#FF0000;strokeColor=#FF0000;opacity=60;" edge="1" parent="1">
          <mxGeometry width="50" height="50" relative="1" as="geometry">
            <mxPoint x="335" y="338.92" as="sourcePoint" />
            <mxPoint x="505" y="338.92" as="targetPoint" />
          </mxGeometry>
        </mxCell>
        <mxCell id="MpDcp7LP96T5za3nywK4-33" value="01001101" style="text;html=1;align=center;verticalAlign=middle;whiteSpace=wrap;rounded=0;fontStyle=1;textOpacity=50;" vertex="1" parent="1">
          <mxGeometry x="270" y="322" width="60" height="30" as="geometry" />
        </mxCell>
        <mxCell id="MpDcp7LP96T5za3nywK4-35" value="01001101" style="text;html=1;align=center;verticalAlign=middle;whiteSpace=wrap;rounded=0;fontStyle=1;textOpacity=30;" vertex="1" parent="1">
          <mxGeometry x="270" y="286" width="60" height="30" as="geometry" />
        </mxCell>
        <mxCell id="MpDcp7LP96T5za3nywK4-36" value="" style="endArrow=classic;html=1;rounded=0;fontColor=#FF0000;strokeColor=#FF0000;opacity=20;" edge="1" parent="1">
          <mxGeometry width="50" height="50" relative="1" as="geometry">
            <mxPoint x="320" y="310" as="sourcePoint" />
            <mxPoint x="320" y="330" as="targetPoint" />
          </mxGeometry>
        </mxCell>
      </root>
    </mxGraphModel>
  </diagram>
</mxfile>
